<?xml version="1.0" standalone="no"?>
<!DOCTYPE svg PUBLIC "-//W3C//DTD SVG 20010904//EN"
 "http://www.w3.org/TR/2001/REC-SVG-20010904/DTD/svg10.dtd">
<svg version="1.0" xmlns="http://www.w3.org/2000/svg"
 width="480.000000pt" height="337.000000pt" viewBox="0 0 480.000000 337.000000"
 preserveAspectRatio="xMidYMid meet">
<metadata>
Created by potrace 1.15, written by Peter Selinger 2001-2017
</metadata>
<g transform="translate(0.000000,337.000000) scale(0.100000,-0.100000)"
fill="#000000" stroke="none">
<path d="M1460 3325 c-694 -117 -1230 -609 -1371 -1259 -38 -175 -43 -584 -9
-746 21 -97 61 -231 97 -319 196 -486 640 -841 1195 -953 97 -20 144 -23 328
-23 189 0 228 3 318 23 214 48 438 144 617 265 114 77 372 332 442 437 101
151 210 381 237 500 l13 55 366 3 367 2 0 325 0 325 -359 0 -358 0 -7 41 c-25
153 -153 440 -274 608 -269 378 -742 667 -1177 720 -117 14 -330 12 -425 -4z
m492 -250 c302 -53 633 -244 831 -482 439 -528 462 -1226 60 -1771 -136 -184
-303 -326 -498 -422 -206 -102 -366 -145 -576 -156 -702 -37 -1313 427 -1475
1121 -16 67 -19 118 -18 310 1 214 2 237 27 327 31 117 86 259 135 348 134
246 375 479 617 595 103 50 268 107 370 129 97 20 414 21 527 1z"/>
<path d="M1550 3005 c-8 -2 -49 -9 -90 -15 -164 -27 -369 -108 -525 -210 -45
-30 -122 -96 -175 -150 -160 -162 -262 -323 -325 -509 -63 -189 -70 -234 -69
-466 1 -192 3 -218 27 -306 48 -183 147 -387 247 -514 185 -232 439 -397 729
-472 118 -30 363 -42 512 -24 269 31 529 156 735 353 204 196 332 421 390 688
27 121 27 449 0 570 -123 563 -577 978 -1148 1050 -74 9 -270 12 -308 5z m376
-210 c89 -16 217 -62 328 -117 l59 -30 -175 -175 -175 -175 -59 19 c-80 24
-324 25 -399 0 l-50 -17 -172 173 c-95 94 -173 175 -173 178 0 8 184 93 246
113 148 48 395 61 570 31z m-853 -926 c-21 -75 -21 -305 0 -379 l16 -55 -177
-178 -177 -177 -41 82 c-101 201 -130 339 -121 568 8 184 36 302 109 447 l52
105 177 -179 177 -179 -15 -55z m1661 309 c137 -279 153 -624 41 -898 -36 -87
-82 -177 -95 -185 -6 -4 -87 69 -181 162 l-171 168 17 70 c22 93 22 268 1 360
l-17 69 173 173 c95 95 176 173 179 173 4 0 28 -42 53 -92z m-872 -156 c79
-39 143 -105 185 -190 36 -71 38 -82 38 -166 0 -78 -4 -99 -27 -149 -37 -80
-120 -159 -210 -202 -65 -32 -81 -35 -159 -35 -79 0 -92 3 -157 35 -95 48
-181 139 -207 221 -30 91 -27 204 7 277 36 76 77 127 138 172 76 56 110 65
235 62 92 -2 118 -6 157 -25z m438 -1313 c0 -10 -193 -97 -260 -117 -157 -47
-375 -60 -530 -33 -132 24 -373 115 -394 150 -3 5 72 84 166 176 149 143 176
165 198 161 146 -31 337 -32 430 -3 l45 14 173 -171 c94 -94 172 -173 172
-177z"/>
<path d="M4110 1635 l0 -325 320 0 320 0 0 68 c0 111 -49 240 -132 349 -95
124 -305 233 -450 233 l-58 0 0 -325z"/>
<path d="M4110 660 l0 -610 320 0 320 0 0 610 0 610 -320 0 -320 0 0 -610z"/>
</g>
</svg>
