<?xml version="1.0" standalone="no"?>
<!DOCTYPE svg PUBLIC "-//W3C//DTD SVG 20010904//EN"
 "http://www.w3.org/TR/2001/REC-SVG-20010904/DTD/svg10.dtd">
<svg version="1.0" xmlns="http://www.w3.org/2000/svg"
 width="800.000000pt" height="800.000000pt" viewBox="0 0 800.000000 800.000000"
 preserveAspectRatio="xMidYMid meet">
<metadata>
Created by potrace 1.15, written by Peter Selinger 2001-2017
</metadata>
<g transform="translate(0.000000,800.000000) scale(0.100000,-0.100000)"
fill="#000000" stroke="none">
<path d="M2855 6183 c-977 -120 -1747 -802 -1930 -1708 -38 -191 -48 -325 -42
-559 6 -216 23 -347 66 -512 218 -848 899 -1440 1816 -1580 171 -26 456 -24
618 5 605 106 1128 437 1494 946 138 192 285 511 328 713 l7 32 494 0 494 0 0
415 0 415 -482 2 -481 3 -19 85 c-43 200 -150 462 -267 649 -350 564 -988 992
-1615 1086 -95 14 -394 19 -481 8z m386 -273 c816 -83 1488 -660 1689 -1450
37 -143 51 -248 57 -420 24 -682 -315 -1323 -897 -1695 -157 -101 -410 -205
-605 -249 -125 -28 -197 -37 -365 -43 -546 -19 -1050 179 -1434 563 -634 636
-746 1626 -271 2393 180 291 461 547 774 705 98 50 274 114 402 146 224 55
434 71 650 50z"/>
<path d="M2875 5743 c-200 -24 -401 -81 -575 -164 -192 -92 -316 -177 -458
-313 -305 -293 -490 -659 -541 -1076 -23 -181 -8 -445 34 -613 107 -422 340
-774 675 -1018 469 -343 1073 -435 1618 -247 454 156 817 479 1021 909 120
254 172 480 172 759 1 491 -183 926 -537 1271 -336 327 -770 502 -1234 497
-80 0 -158 -3 -175 -5z m453 -218 c175 -28 357 -94 519 -187 l74 -42 -252
-252 -252 -252 -67 23 c-178 61 -405 59 -571 -4 l-47 -18 -252 252 -253 253
74 43 c190 111 402 177 654 203 67 7 280 -4 373 -19z m-1295 -933 l247 -247
-24 -73 c-57 -166 -58 -381 -3 -542 l26 -75 -247 -247 c-136 -137 -250 -248
-254 -248 -13 0 -89 138 -133 242 -82 192 -117 372 -117 598 -1 197 25 347 88
525 40 113 144 315 162 315 4 0 119 -111 255 -248z m2393 155 c225 -409 255
-891 83 -1322 -37 -93 -127 -265 -139 -265 -3 0 -117 112 -253 248 l-249 249
26 81 c55 174 54 345 -1 520 l-26 84 249 249 c137 137 251 249 254 249 3 0 28
-42 56 -93z m-1221 -232 c330 -86 499 -473 343 -785 -87 -172 -296 -299 -493
-300 -179 0 -381 113 -470 265 -107 181 -106 413 3 580 76 116 187 202 305
236 79 23 232 24 312 4z m-380 -1342 c73 -25 93 -27 240 -28 148 0 168 2 259
29 l98 29 250 -250 249 -249 -48 -30 c-378 -234 -877 -287 -1305 -138 -101 35
-227 94 -301 141 l-40 25 249 249 c137 137 253 249 259 249 5 0 46 -12 90 -27z"/>
<path d="M6290 3935 l0 -415 415 0 415 0 0 45 c0 159 -91 378 -211 510 -149
162 -381 274 -571 275 l-48 0 0 -415z"/>
<path d="M6290 2635 l0 -795 415 0 415 0 0 795 0 795 -415 0 -415 0 0 -795z"/>
</g>
</svg>
