<?xml version="1.0" standalone="no"?>
<!DOCTYPE svg PUBLIC "-//W3C//DTD SVG 20010904//EN"
 "http://www.w3.org/TR/2001/REC-SVG-20010904/DTD/svg10.dtd">
<svg version="1.0" xmlns="http://www.w3.org/2000/svg"
 width="800.000000pt" height="800.000000pt" viewBox="0 0 800.000000 800.000000"
 preserveAspectRatio="xMidYMid meet">
<metadata>
Created by potrace 1.15, written by Peter Selinger 2001-2017
</metadata>
<g transform="translate(0.000000,800.000000) scale(0.100000,-0.100000)"
fill="#000000" stroke="none">
<path d="M2043 5043 c-3 -10 -23 -56 -45 -102 -119 -260 -362 -514 -640 -671
l-58 -32 0 -50 0 -50 65 36 c36 20 77 43 90 52 l25 16 0 -235 0 -236 -87 -3
-88 -3 -3 -97 -3 -98 371 0 370 0 0 -320 0 -320 175 0 175 0 0 320 0 320 1610
0 1610 0 0 -320 0 -320 175 0 175 0 0 320 0 320 380 0 381 0 -3 98 -3 97 -87
3 -88 3 0 229 c0 127 2 230 4 230 2 0 39 -20 82 -45 44 -25 82 -45 87 -45 4 0
7 21 7 48 l0 47 -83 47 c-260 147 -483 379 -603 628 -31 63 -59 122 -64 130
-6 12 -39 15 -184 18 l-177 2 -19 -47 c-65 -158 -152 -287 -279 -413 -264
-264 -619 -417 -1073 -465 -174 -18 -276 -19 -441 -4 -530 46 -972 265 -1225
607 -57 77 -151 248 -164 300 -6 22 -8 22 -182 22 -159 0 -177 -2 -183 -17z
m4081 -441 l46 -54 0 -389 0 -389 -105 0 -105 0 0 532 0 532 59 -90 c33 -49
80 -113 105 -142z m-3677 150 c23 -37 69 -99 102 -139 l61 -72 0 -385 0 -386
-110 0 -110 0 0 525 c0 289 3 525 8 525 4 -1 26 -31 49 -68z m3163 -457 l0
-525 -115 0 -115 0 0 378 c0 374 0 379 21 398 31 27 154 188 181 235 12 21 23
39 25 39 2 0 3 -236 3 -525z m-3570 -10 l0 -515 -95 0 -95 0 0 390 0 391 66
81 c36 45 77 101 91 125 13 24 27 43 29 43 2 0 4 -232 4 -515z m-240 -155 l0
-360 -135 0 -135 0 0 248 0 249 43 30 c23 17 83 67 132 112 50 44 91 81 93 81
1 0 2 -162 2 -360z m1066 205 c29 -19 71 -43 93 -55 l41 -20 0 -245 0 -245
-170 0 -170 0 0 360 0 360 76 -60 c42 -34 101 -76 130 -95z m3562 -23 l62 -46
0 -248 0 -248 -135 0 -135 0 0 361 0 361 73 -67 c39 -37 100 -87 135 -113z
m-1098 -192 l0 -350 -170 0 -170 0 0 238 0 237 84 48 c46 26 121 76 167 111
46 36 85 65 87 65 1 1 2 -156 2 -349z m-2030 17 l85 -25 3 -171 2 -171 -170 0
-170 0 0 229 0 229 83 -33 c45 -19 120 -45 167 -58z m1650 -142 l0 -225 -175
0 -175 0 0 165 c0 191 -19 164 147 214 55 17 121 40 145 51 23 11 46 20 51 20
4 0 7 -101 7 -225z m-1252 58 l77 -8 3 -137 3 -138 -171 0 -170 0 0 164 0 163
91 -18 c50 -10 125 -22 167 -26z m862 -123 l0 -160 -170 0 -170 0 0 135 c0
132 1 135 23 139 12 3 76 12 142 21 66 9 121 18 124 21 2 2 15 4 28 4 l23 0 0
-160z m-390 -27 l0 -133 -170 0 -170 0 0 134 0 134 170 -2 170 -1 0 -132z"/>
</g>
</svg>
