<?xml version="1.0" standalone="no"?>
<!DOCTYPE svg PUBLIC "-//W3C//DTD SVG 20010904//EN"
 "http://www.w3.org/TR/2001/REC-SVG-20010904/DTD/svg10.dtd">
<svg version="1.0" xmlns="http://www.w3.org/2000/svg"
 width="414.000000pt" height="168.000000pt" viewBox="0 0 414.000000 168.000000"
 preserveAspectRatio="xMidYMid meet">
<metadata>
Created by potrace 1.15, written by Peter Selinger 2001-2017
</metadata>
<g transform="translate(0.000000,168.000000) scale(0.100000,-0.100000)"
fill="#000000" stroke="none">
<path d="M583 1628 c-6 -7 -22 -39 -36 -72 -82 -181 -300 -412 -480 -506 -45
-24 -47 -27 -47 -67 0 -24 3 -43 6 -43 3 0 35 16 70 36 l64 36 0 -171 0 -171
-70 0 -70 0 0 -80 0 -80 280 0 280 0 0 -240 0 -240 135 0 135 0 0 240 0 240
1200 0 1200 0 0 -240 0 -240 135 0 135 0 0 240 0 240 291 0 291 0 -6 22 c-3
13 -6 49 -6 81 l0 57 -65 0 -65 0 0 165 c0 91 2 165 3 165 2 0 28 -13 58 -30
30 -16 57 -30 62 -30 4 0 7 19 7 43 0 40 -2 43 -47 67 -69 36 -189 128 -257
196 -85 85 -148 172 -205 283 -58 114 -52 111 -227 111 l-102 0 -22 -52 c-107
-253 -355 -466 -656 -567 -185 -62 -276 -75 -524 -75 -195 0 -238 2 -326 22
-201 44 -349 103 -491 198 -152 101 -255 219 -342 392 l-41 82 -129 0 c-91 0
-131 -4 -138 -12z m3063 -349 l24 -25 0 -292 0 -292 -75 0 -75 0 0 392 0 392
51 -75 c28 -41 62 -85 75 -100z m-2680 5 l34 -41 0 -287 0 -286 -75 0 -75 0 0
387 0 386 41 -59 c23 -32 57 -77 75 -100z m2284 -234 l0 -380 -80 0 -80 0 0
278 0 277 61 75 c33 41 68 87 77 103 9 15 18 27 19 27 2 0 3 -171 3 -380z
m-2671 -207 l1 -173 -70 0 -70 0 0 286 0 285 63 84 62 84 6 -197 c4 -108 7
-275 8 -369z m-180 -55 l1 -118 -100 0 -100 0 0 185 c0 102 3 185 8 185 4 0
45 33 92 73 l85 74 6 -141 c4 -78 7 -194 8 -258z m738 340 c36 -27 87 -60 114
-73 l49 -25 0 -180 0 -180 -125 0 -125 0 0 261 c0 192 3 258 11 253 7 -4 41
-29 76 -56z m2716 -46 l57 -45 0 -184 0 -183 -95 0 -95 0 0 261 0 260 38 -31
c20 -18 63 -53 95 -78z m-813 -157 l0 -255 -120 0 -120 0 0 174 0 173 88 56
c48 31 101 67 117 81 17 14 31 25 33 26 1 0 2 -115 2 -255z m-1564 29 l101
-36 7 -51 c3 -29 6 -85 6 -124 l0 -73 -125 0 -125 0 0 166 c0 154 1 166 18
159 9 -3 63 -22 118 -41z m1278 20 c3 -9 6 -81 6 -160 l0 -144 -130 0 -130 0
1 98 c2 147 -2 141 119 183 125 43 126 43 134 23z m-874 -206 l0 -98 -125 0
-125 0 0 118 0 117 125 -20 125 -19 0 -98z m590 17 l0 -115 -125 0 -126 0 3
98 3 97 95 16 c52 9 107 17 123 18 l27 1 0 -115z m-300 -20 l0 -95 -120 0
-120 0 0 95 0 95 120 0 120 0 0 -95z"/>
</g>
</svg>
