<?xml version="1.0" standalone="no"?>
<!DOCTYPE svg PUBLIC "-//W3C//DTD SVG 20010904//EN"
 "http://www.w3.org/TR/2001/REC-SVG-20010904/DTD/svg10.dtd">
<svg version="1.0" xmlns="http://www.w3.org/2000/svg"
 width="800.000000pt" height="800.000000pt" viewBox="0 0 800.000000 800.000000"
 preserveAspectRatio="xMidYMid meet">
<metadata>
Created by potrace 1.15, written by Peter Selinger 2001-2017
</metadata>
<g transform="translate(0.000000,800.000000) scale(0.100000,-0.100000)"
fill="#000000" stroke="none">
<path d="M2340 5154 c-6 -14 -10 -168 -10 -365 l0 -339 -295 0 c-281 0 -295
-1 -305 -19 -5 -11 -10 -69 -10 -130 l0 -111 -43 0 c-58 0 -67 -21 -67 -150
l0 -100 -33 0 c-18 0 -43 -7 -55 -16 -21 -14 -22 -22 -22 -145 l0 -129 -44 0
c-24 0 -48 -6 -53 -12 -6 -7 -29 -95 -51 -196 l-42 -183 71 -176 c38 -96 68
-177 65 -180 -8 -9 -84 18 -120 42 -45 30 -81 32 -96 5 -17 -32 -4 -56 48 -88
122 -78 261 -68 385 26 114 86 202 84 317 -7 123 -97 280 -94 413 7 114 86
202 84 317 -7 123 -97 281 -94 413 8 64 49 95 61 155 61 54 0 108 -24 170 -75
79 -64 205 -83 303 -46 27 11 74 38 102 60 64 49 95 61 155 61 54 0 108 -24
170 -75 111 -89 289 -85 400 10 52 45 100 65 156 65 58 0 90 -13 153 -61 28
-22 75 -49 102 -60 98 -37 224 -18 303 46 62 51 116 75 170 75 61 0 89 -11
159 -65 79 -59 142 -79 233 -73 77 5 132 28 190 78 45 40 95 60 150 60 58 0
90 -13 153 -61 66 -51 139 -79 207 -79 134 0 272 89 226 145 -18 22 -54 18
-96 -10 -55 -38 -110 -49 -167 -36 -48 11 -137 64 -137 81 0 5 83 105 185 222
102 116 185 219 185 228 0 10 -8 24 -18 33 -16 15 -47 17 -225 17 l-206 0
-168 220 c-141 183 -173 220 -199 225 -27 6 -38 20 -95 128 l-64 122 -75 5
-75 5 -65 125 -65 125 -94 5 -94 5 -66 125 -66 125 -847 3 c-760 2 -848 0
-862 -14 -13 -12 -16 -39 -16 -130 l0 -114 -210 0 -210 0 0 353 c0 261 -3 356
-12 365 -9 9 -98 12 -340 12 l-328 0 -10 -26z m590 -129 l0 -65 -250 0 -250 0
0 65 0 65 250 0 250 0 0 -65z m2542 -740 c21 -38 38 -76 38 -82 0 -10 -375
-13 -1845 -13 l-1845 0 0 85 0 85 1808 -2 1807 -3 37 -70z m-3312 -846 c0 -11
-13 -34 -29 -50 -29 -29 -31 -29 -140 -29 l-111 0 0 50 0 50 140 0 c135 0 140
-1 140 -21z m550 -3 c0 -15 -12 -34 -31 -50 -29 -25 -37 -26 -140 -26 l-109 0
0 50 0 50 140 0 140 0 0 -24z m550 2 c0 -12 -12 -35 -27 -50 -26 -27 -29 -28
-140 -28 l-113 0 0 50 0 50 140 0 c137 0 140 0 140 -22z m556 6 c-3 -9 -6 -19
-6 -23 0 -5 -12 -20 -26 -35 -26 -25 -31 -26 -140 -26 l-114 0 0 43 c0 24 3
47 7 50 3 4 69 7 146 7 123 0 138 -2 133 -16z m554 5 c0 -18 -21 -53 -44 -71
-17 -14 -42 -18 -128 -18 l-108 0 0 50 0 50 140 0 c92 0 140 -4 140 -11z m550
1 c0 -21 -30 -70 -49 -80 -11 -5 -67 -10 -125 -10 l-106 0 0 50 0 50 140 0
c91 0 140 -4 140 -10z m550 -11 c0 -11 -13 -34 -29 -50 -29 -29 -31 -29 -140
-29 l-111 0 0 50 0 50 140 0 c135 0 140 -1 140 -21z"/>
</g>
</svg>
