<?xml version="1.0" standalone="no"?>
<!DOCTYPE svg PUBLIC "-//W3C//DTD SVG 20010904//EN"
 "http://www.w3.org/TR/2001/REC-SVG-20010904/DTD/svg10.dtd">
<svg version="1.0" xmlns="http://www.w3.org/2000/svg"
 width="425.000000pt" height="188.000000pt" viewBox="0 0 425.000000 188.000000"
 preserveAspectRatio="xMidYMid meet">
<metadata>
Created by potrace 1.15, written by Peter Selinger 2001-2017
</metadata>
<g transform="translate(0.000000,188.000000) scale(0.100000,-0.100000)"
fill="#000000" stroke="none">
<path d="M893 1828 c-4 -7 -9 -131 -11 -275 l-4 -263 -222 -2 -221 -3 -3 -92
-3 -92 -32 -3 c-42 -4 -57 -35 -57 -120 0 -65 -1 -68 -24 -68 -46 0 -56 -23
-56 -126 l0 -94 -34 0 c-19 0 -37 -3 -39 -7 -3 -5 -20 -71 -37 -149 l-33 -140
51 -129 c28 -71 49 -131 47 -133 -2 -2 -27 8 -55 22 -61 31 -96 33 -105 7 -8
-27 1 -43 40 -68 89 -58 180 -52 300 20 93 56 129 56 215 0 119 -77 210 -79
320 -8 101 65 139 67 218 14 77 -52 105 -62 167 -63 68 -1 106 12 184 63 76
50 115 49 209 -8 126 -76 194 -78 313 -6 41 25 88 47 105 51 36 7 84 -11 143
-54 50 -36 128 -55 188 -46 23 3 66 21 95 40 124 79 151 80 259 11 112 -72
200 -71 315 4 100 65 124 63 240 -10 105 -66 196 -64 301 5 108 71 122 70 278
-22 42 -24 60 -29 115 -28 73 1 139 28 165 68 34 51 -19 75 -81 37 -52 -32
-87 -35 -143 -11 -28 12 -55 27 -60 34 -6 7 10 33 51 81 133 155 218 259 218
266 0 4 -7 15 -16 23 -13 13 -43 16 -169 16 l-153 0 -106 138 c-130 168 -133
172 -172 200 -19 13 -48 54 -73 101 -43 83 -53 91 -121 91 -35 0 -37 2 -85 95
l-50 95 -62 0 c-74 0 -80 5 -133 110 l-39 78 -458 7 c-436 7 -829 2 -842 -11
-3 -3 -8 -46 -9 -95 l-4 -89 -148 0 -148 0 -4 265 c-2 223 -5 267 -18 275 -24
15 -497 13 -507 -2z m437 -113 l0 -45 -180 0 -180 0 0 45 0 45 180 0 180 0 0
-45z m751 -505 l1135 0 22 -45 c12 -25 22 -50 22 -55 0 -7 -490 -10 -1375 -10
l-1375 0 0 62 0 61 218 -6 c119 -4 728 -7 1353 -7z"/>
</g>
</svg>
