<svg xmlns="http://www.w3.org/2000/svg" width="33.51" height="33.635" viewBox="0 0 33.51 33.635">
  <path id="Path_3640" data-name="Path 3640" d="M253.026,117.18l0,0L253,117.15a11.927,11.927,0,0,0-1.347-1.346l-8.691-8.84q-.4-.443-.842-.842l-.178-.178-.008.009a11.85,11.85,0,1,0-15.216,18.165l8.137,8.286a11.853,11.853,0,1,0,18.171-15.224Zm-9.047,18.644c-6.073,0-10.2-4.125-10.2-10.2a11,11,0,0,1,11-11c6.072,0,10.2,4.125,10.2,10.2A11,11,0,0,1,243.979,135.824Z" transform="translate(-222.32 -103.05)" fill="#1a1818"/>
</svg>
