<svg xmlns="http://www.w3.org/2000/svg" width="25.378" height="35.962" viewBox="0 0 25.378 35.962">
  <path id="Path_3638" data-name="Path 3638" d="M233.224,31.848V27.057a29.859,29.859,0,0,0-25.378,0v4.791a18.962,18.962,0,0,0,4.77,1.169v1.029a19.291,19.291,0,0,1-4.77-1.1v2.428a18.919,18.919,0,0,0,4.77,1.169v1.029a19.341,19.341,0,0,1-4.77-1.1V38.9a19.006,19.006,0,0,0,4.77,1.169V41.1a19.3,19.3,0,0,1-4.77-1.1V42.43a19.006,19.006,0,0,0,4.77,1.169v1.029a19.337,19.337,0,0,1-4.77-1.1v2.428a18.919,18.919,0,0,0,4.77,1.169v1.029a19.341,19.341,0,0,1-4.77-1.1v2.427a18.958,18.958,0,0,0,4.77,1.17v1.028a19.341,19.341,0,0,1-4.77-1.1v2.428a19.006,19.006,0,0,0,4.77,1.169v1.028a19.3,19.3,0,0,1-4.77-1.1v2.428a18.962,18.962,0,0,0,4.77,1.169v1.029a19.291,19.291,0,0,1-4.77-1.1v2.551h25.378V57.638a18.026,18.026,0,0,1-4.163,1.016V57.617a17.752,17.752,0,0,0,4.163-1.078V54.111a18.077,18.077,0,0,1-4.163,1.016V54.09a17.752,17.752,0,0,0,4.163-1.078V50.584a18.077,18.077,0,0,1-4.163,1.016V50.562a17.7,17.7,0,0,0,4.163-1.078V47.057a18.03,18.03,0,0,1-4.163,1.015V47.035a17.752,17.752,0,0,0,4.163-1.078V43.529a18.077,18.077,0,0,1-4.163,1.016V43.508a17.752,17.752,0,0,0,4.163-1.078V40a18.077,18.077,0,0,1-4.163,1.016V39.981a17.8,17.8,0,0,0,4.163-1.078V36.475a18.03,18.03,0,0,1-4.163,1.015V36.453a17.752,17.752,0,0,0,4.163-1.078V32.947a18.025,18.025,0,0,1-4.163,1.016V32.926A17.752,17.752,0,0,0,233.224,31.848ZM219.508,59.142c-1.742-.019-3.37-.078-4.837-.192V57.942c1.463.129,3.092.2,4.837.219Zm0-3.528c-1.742-.018-3.37-.077-4.837-.192V54.415c1.463.128,3.092.2,4.837.219Zm0-3.527c-1.742-.018-3.37-.077-4.837-.192V50.888c1.463.128,3.092.2,4.837.219Zm0-3.527c-1.742-.018-3.37-.077-4.837-.192V47.361c1.463.128,3.092.2,4.837.219Zm0-3.528c-1.742-.018-3.37-.077-4.837-.192V43.833c1.463.129,3.092.2,4.837.219Zm0-3.527c-1.742-.018-3.37-.077-4.837-.192V40.306c1.463.128,3.092.2,4.837.219Zm0-3.527c-1.742-.018-3.37-.077-4.837-.192V36.779c1.463.128,3.092.2,4.837.219Zm0-3.527c-1.742-.019-3.37-.078-4.837-.192V33.251c1.463.129,3.092.2,4.837.219Zm7.5,24.441c-1.63.148-3.453.23-5.445.25v-.98c2-.024,3.821-.119,5.445-.283Zm0-3.527c-1.63.148-3.453.229-5.445.25v-.981c2-.024,3.821-.118,5.445-.282Zm0-3.527c-1.63.148-3.453.229-5.445.249v-.98c2-.024,3.821-.118,5.445-.283Zm0-3.528c-1.63.149-3.453.23-5.445.25v-.98c2-.024,3.821-.119,5.445-.283Zm0-3.527c-1.63.148-3.453.229-5.445.25v-.981c2-.024,3.821-.118,5.445-.282Zm0-3.527c-1.63.148-3.453.229-5.445.249v-.98c2-.024,3.821-.118,5.445-.283Zm0-3.527c-1.63.148-3.453.229-5.445.249V37c2-.024,3.821-.118,5.445-.283Zm0-3.528c-1.63.148-3.453.23-5.445.25v-.98c2-.024,3.821-.119,5.445-.283Z" transform="translate(-207.846 -24.227)" fill="#1a1818"/>
</svg>
