<svg xmlns="http://www.w3.org/2000/svg" width="109.438" height="42.976" viewBox="0 0 109.438 42.976"><defs><style>.a{fill:#030104;}</style></defs><g transform="translate(0 -6.037)"><path class="a" d="M109.438,24.635V22.61c-7.15-3.666-12.61-9.473-15.131-16.507l-.1.044v-.11H87.1v.055l-.072-.028C82.594,18.427,69.594,24.938,54.656,24.938S26.722,18.432,22.286,6.092l-.138.055v-.11H15.081v.281A30.555,30.555,0,0,1,0,22.615v2.02a33.793,33.793,0,0,0,3.649-2.059v9.55H.05v3.891H15.081v13h7.067v-13H87.1v13h7.1v-13h15.235v-3.88h-3.594V22.593A39.4,39.4,0,0,0,109.438,24.635Zm-99.283,7.5H4.629v-10.1a33.958,33.958,0,0,0,5.526-4.706Zm4.926,0H11.129V16.269A30.533,30.533,0,0,0,15.081,10.9Zm11.393,0H22.148V10.523a26.64,26.64,0,0,0,4.326,5.829Zm7.86,0H27.46V17.414A29.956,29.956,0,0,0,34.335,22.2Zm7.865,0H35.325v-9.4A37.162,37.162,0,0,0,42.2,25.142Zm7.865,0h-6.88V25.411a47.714,47.714,0,0,0,6.88,1.1Zm7.865,0H51.05V26.556c1.194.094,2.383.182,3.605.182,1.106,0,2.191-.094,3.275-.149C57.931,26.589,57.931,32.137,57.931,32.137Zm7.86,0H58.91V26.529a47.827,47.827,0,0,0,6.88-1.035Zm7.86,0H66.776V25.252a38.9,38.9,0,0,0,6.875-2.361Zm7.871,0H74.63V22.39a30.283,30.283,0,0,0,6.891-4.629Zm5.581,0H82.5V16.72A26.457,26.457,0,0,0,87.1,10.627Zm11.25,0H94.2V10.528a30.311,30.311,0,0,0,4.15,5.757Zm6.528,0H99.332v-14.8a34.543,34.543,0,0,0,5.548,4.689Z" transform="translate(0 0)"/></g></svg>