<svg xmlns="http://www.w3.org/2000/svg" width="112.467" height="48.025" viewBox="0 0 112.467 48.025"><defs><style>.a{fill:#fff;}</style></defs><g transform="translate(0 -114.12)"><path d="M9.014,160.431a4.42,4.42,0,0,1,6.029,0,6.382,6.382,0,0,0,8.705,0,4.421,4.421,0,0,1,6.03,0,6.382,6.382,0,0,0,8.705,0,4.42,4.42,0,0,1,6.029,0,6.382,6.382,0,0,0,8.705,0,4.421,4.421,0,0,1,6.03,0,6.382,6.382,0,0,0,8.705,0,4.421,4.421,0,0,1,6.03,0,6.382,6.382,0,0,0,8.705,0,4.421,4.421,0,0,1,6.029,0,6.382,6.382,0,0,0,8.705,0,4.421,4.421,0,0,1,6.029,0,6.382,6.382,0,0,0,8.705,0A.978.978,0,0,0,110.819,159a4.421,4.421,0,0,1-6.029,0,6.343,6.343,0,0,0-.757-.6l7.389-8.462a.978.978,0,0,0-.737-1.622H102.6l-6.644-8.643a.979.979,0,0,0-.776-.382h-.556l-2.451-4.7a.979.979,0,0,0-.868-.526H88.962l-2.451-4.7a.979.979,0,0,0-.868-.526H82.526l-2.451-4.7a.978.978,0,0,0-.868-.526H46.019a.979.979,0,0,0-.978.978v4.246H36.548V115.1a.979.979,0,0,0-.978-.978H23.457a.979.979,0,0,0-.978.978v13.746h-11.4a.979.979,0,0,0-.978.978v4.246H8.922a.979.979,0,0,0-.978.978v4.246H6.616a.979.979,0,0,0-.978.978V145H4.395a.978.978,0,0,0-.954.762l-1.578,6.97a.978.978,0,0,0,.047.583l2.781,6.878A4.4,4.4,0,0,1,1.647,159a.979.979,0,1,0-1.338,1.428A6.383,6.383,0,0,0,9.014,160.431Zm25.576-44.354v2.556H24.436v-2.556Zm0,12.767h0ZM12.057,130.8H85.05l1.7,3.268h-74.7ZM9.9,136.027ZM102.2,157.534Z"/><path class="a" d="M105.7,256.617h-5.691v2.02h3.672A2.02,2.02,0,0,0,105.7,256.617Z" transform="translate(-75.542 -107.639)"/><path class="a" d="M60.174,256.617H54.483v2.02h3.671A2.02,2.02,0,0,0,60.174,256.617Z" transform="translate(-41.156 -107.639)"/><path class="a" d="M151.218,256.617h-5.691v2.02H149.2A2.02,2.02,0,0,0,151.218,256.617Z" transform="translate(-109.928 -107.639)"/><path class="a" d="M196.739,256.617h-5.691v2.02h3.671A2.02,2.02,0,0,0,196.739,256.617Z" transform="translate(-144.314 -107.639)"/><path class="a" d="M242.261,256.617H236.57v2.02h3.671A2.02,2.02,0,0,0,242.261,256.617Z" transform="translate(-178.7 -107.639)"/><path class="a" d="M287.783,256.617h-5.691v2.02h3.671A2.02,2.02,0,0,0,287.783,256.617Z" transform="translate(-213.087 -107.639)"/><path class="a" d="M333.305,256.617h-5.691v2.02h3.672A2.02,2.02,0,0,0,333.305,256.617Z" transform="translate(-247.473 -107.639)"/><circle class="a" cx="1.345" cy="1.345" r="1.345" transform="translate(98.348 151.99)"/></g></svg>