<svg xmlns="http://www.w3.org/2000/svg" width="247.657" height="86.585" viewBox="0 0 247.657 86.585">
  <g id="Group_2728" data-name="Group 2728" transform="translate(-647 -438)">
    <g id="Group_2665" data-name="Group 2665" transform="translate(772.165 438)">
      <path id="Path_3585" data-name="Path 3585" d="M248.029,145.492l-62.174,86.223,122.492.363Zm.923,32.484L219.273,220.1h-8.146l32.9-45.565,6.852.106,11.449,16.327h-3.987l-4.4-6.093-21.017,32.35h43.866l2.407,3.087h-53.93l26.647-38.241Z" transform="translate(-185.855 -145.492)" fill="#c9141c"/>
    </g>
    <g id="Group_2702" data-name="Group 2702" transform="translate(647 457.384)">
      <path id="Path_3536" data-name="Path 3536" d="M122.218,138.8l4.016,13.677H124l-1.043-3.713H116.4l-1.042,3.713h-2.063l3.995-13.677Zm-5.3,8.185h5.537l-1.785-6.383h-1.943Z" transform="translate(-113.293 -138.584)"/>
      <path id="Path_3537" data-name="Path 3537" d="M151.291,138.8l4.017,13.677h-2.237l-1.042-3.713h-6.558l-1.043,3.713h-2.062l3.995-13.677Zm-5.3,8.185h5.538l-1.821-6.51h-1.871Z" transform="translate(-109.522 -138.584)"/>
      <path id="Path_3538" data-name="Path 3538" d="M125.766,138.8h3.777c3.6,0,5.341,2.084,5.341,6.426v.825c0,4.343-1.737,6.427-5.341,6.427h-3.777Zm3.581,11.875c2.193,0,3.278-1,3.278-4.256v-1.562c0-3.257-1.086-4.256-3.278-4.256H127.98v10.073Z" transform="translate(-111.675 -138.584)"/>
      <path id="Path_3539" data-name="Path 3539" d="M138,152.478,134.029,138.8h2.257l2.888,10.356h.087l2.886-10.356h2.084l-3.951,13.677Z" transform="translate(-110.604 -138.584)"/>
      <path id="Path_3540" data-name="Path 3540" d="M161.658,148.157h.087V138.8h2.019v13.677h-1.779l-5.08-9.77h-.087v9.77h-2.04V138.8H156.9Z" transform="translate(-107.913 -138.584)"/>
      <path id="Path_3541" data-name="Path 3541" d="M164.154,145.23c0-4.256,1.692-6.621,4.841-6.621,3.126,0,4.515,2.323,4.515,5.667v.325H171.4v-.325c0-2.3-.652-3.843-2.388-3.843-1.78,0-2.584,1.606-2.584,4.451v1.562c0,2.843.8,4.451,2.584,4.451,1.736,0,2.388-1.542,2.388-3.843v-.325h2.106v.325c0,3.343-1.39,5.667-4.515,5.667-3.148,0-4.841-2.367-4.841-6.622Z" transform="translate(-106.696 -138.609)"/>
      <path id="Path_3542" data-name="Path 3542" d="M181.458,152.478h-7.62V138.8h7.533v1.845h-5.363v3.908h4.211v1.8h-4.211v4.277h5.45Z" transform="translate(-105.44 -138.584)"/>
      <path id="Path_3543" data-name="Path 3543" d="M181.927,138.8H185.7c3.6,0,5.34,2.084,5.34,6.426v.825c0,4.343-1.736,6.427-5.34,6.427h-3.778Zm3.582,11.875c2.193,0,3.277-1,3.277-4.256v-1.562c0-3.257-1.084-4.256-3.277-4.256h-1.368v10.073Z" transform="translate(-104.392 -138.584)"/>
    </g>
    <g id="Group_2703" data-name="Group 2703" transform="translate(647 474.247)">
      <path id="Path_3544" data-name="Path 3544" d="M121.4,160.157c0-4.254,1.693-6.621,4.841-6.621,3.127,0,4.517,2.323,4.517,5.667v.325h-2.107V159.2c0-2.3-.651-3.843-2.387-3.843-1.78,0-2.584,1.606-2.584,4.451v1.562c0,2.843.8,4.451,2.584,4.451,1.736,0,2.387-1.542,2.387-3.843v-.325h2.107v.325c0,3.343-1.39,5.667-4.517,5.667-3.147,0-4.841-2.367-4.841-6.621Z" transform="translate(-121.399 -153.536)"/>
      <path id="Path_3545" data-name="Path 3545" d="M140.408,160.982c0,4.256-1.672,6.665-4.863,6.665s-4.884-2.41-4.884-6.665V160.2c0-4.254,1.692-6.664,4.884-6.664s4.863,2.41,4.863,6.664Zm-2.279-1.129c0-2.843-.783-4.494-2.585-4.494-1.823,0-2.6,1.65-2.6,4.494v1.476c0,2.843.781,4.494,2.6,4.494,1.8,0,2.585-1.65,2.585-4.494Z" transform="translate(-120.198 -153.536)"/>
      <path id="Path_3548" data-name="Path 3548" d="M147.592,163.084h.087v-9.356H149.7v13.677h-1.78l-5.079-9.77h-.088v9.77h-2.04V153.728h2.128Z" transform="translate(-118.895 -153.511)"/>
      <path id="Path_3549" data-name="Path 3549" d="M154.128,153.536a3.985,3.985,0,0,1,4.341,4.32v.5h-1.975V157.9c0-1.564-.76-2.649-2.367-2.649a1.81,1.81,0,0,0-1.954,1.976,1.972,1.972,0,0,0,1.5,1.91l1.889.716c2,.782,3.127,1.846,3.127,3.908,0,2.367-1.672,3.886-4.191,3.886-2.952,0-4.6-1.672-4.6-4.538v-.39h2v.325c0,1.91.956,2.888,2.585,2.888a1.841,1.841,0,0,0,2.062-1.976c0-1.107-.608-1.672-1.759-2.106l-1.8-.651c-1.758-.652-2.909-1.672-2.909-3.8A3.736,3.736,0,0,1,154.128,153.536Z" transform="translate(-117.703 -153.536)"/>
      <path id="Path_3550" data-name="Path 3550" d="M161.451,167.405V155.573h-3.582v-1.845h9.423v1.845h-3.648v11.832Z" transform="translate(-116.669 -153.511)"/>
      <path id="Path_3551" data-name="Path 3551" d="M174.082,167.405a8.568,8.568,0,0,1-.543-3.126c-.086-1.629-.478-2.324-2.04-2.324h-1.889v5.45h-2.17V153.728h4.211c3.1,0,4.558,1.606,4.558,4.016a3.209,3.209,0,0,1-2.41,3.408c1.39.391,1.823,1.368,1.91,3.017a7.34,7.34,0,0,0,.652,3.235Zm-2.541-7.186c1.78,0,2.454-.782,2.454-2.344,0-1.455-.673-2.345-2.454-2.345h-1.932v4.689Z" transform="translate(-115.428 -153.511)"/>
      <path id="Path_3552" data-name="Path 3552" d="M176.469,162.672v-8.944h2.214v8.836c0,2.17.739,3.212,2.345,3.212,1.628,0,2.366-1.042,2.366-3.212v-8.836h2.214v8.944c0,3.344-1.866,4.95-4.58,4.95C178.336,167.622,176.469,166.016,176.469,162.672Z" transform="translate(-114.257 -153.511)"/>
      <path id="Path_3553" data-name="Path 3553" d="M185.846,160.157c0-4.254,1.693-6.621,4.841-6.621,3.127,0,4.517,2.323,4.517,5.667v.325H193.1V159.2c0-2.3-.651-3.843-2.387-3.843-1.78,0-2.584,1.606-2.584,4.451v1.562c0,2.843.8,4.451,2.584,4.451,1.736,0,2.387-1.542,2.387-3.843v-.325H195.2v.325c0,3.343-1.39,5.667-4.517,5.667-3.147,0-4.841-2.367-4.841-6.621Z" transform="translate(-113.041 -153.536)"/>
      <path id="Path_3554" data-name="Path 3554" d="M198.036,167.405V155.573h-3.582v-1.845h9.423v1.845h-3.648v11.832Z" transform="translate(-111.924 -153.511)"/>
      <path id="Path_3555" data-name="Path 3555" d="M206.238,153.728v13.677h-2.215V153.728Z" transform="translate(-110.683 -153.511)"/>
      <path id="Path_3556" data-name="Path 3556" d="M217.153,160.982c0,4.256-1.672,6.665-4.863,6.665s-4.885-2.41-4.885-6.665V160.2c0-4.254,1.693-6.664,4.885-6.664s4.863,2.41,4.863,6.664Zm-2.28-1.129c0-2.843-.782-4.494-2.584-4.494-1.823,0-2.605,1.65-2.605,4.494v1.476c0,2.843.782,4.494,2.605,4.494,1.8,0,2.584-1.65,2.584-4.494Z" transform="translate(-110.245 -153.536)"/>
      <path id="Path_3557" data-name="Path 3557" d="M224.337,163.084h.086v-9.356h2.019v13.677h-1.779l-5.08-9.77H219.5v9.77h-2.04V153.728h2.127Z" transform="translate(-108.941 -153.511)"/>
    </g>
    <g id="Group_2704" data-name="Group 2704" transform="translate(647 491.327)">
      <path id="Path_3546" data-name="Path 3546" d="M126.737,175.276c0-4.254,1.693-6.621,4.841-6.621,3.126,0,4.515,2.323,4.515,5.667v.325h-2.106v-.325c0-2.3-.651-3.843-2.388-3.843-1.78,0-2.582,1.606-2.582,4.451v1.562c0,2.845.8,4.451,2.582,4.451,1.737,0,2.388-1.542,2.388-3.842v-.326h2.106v.326c0,3.343-1.39,5.665-4.515,5.665-3.147,0-4.841-2.367-4.841-6.621Z" transform="translate(-126.737 -168.655)"/>
      <path id="Path_3547" data-name="Path 3547" d="M145.746,176.1c0,4.256-1.672,6.665-4.863,6.665S136,180.356,136,176.1v-.781c0-4.256,1.693-6.665,4.885-6.665s4.863,2.41,4.863,6.665Zm-2.28-1.129c0-2.843-.782-4.494-2.584-4.494-1.823,0-2.605,1.65-2.605,4.494v1.477c0,2.843.782,4.494,2.605,4.494,1.8,0,2.584-1.65,2.584-4.494Z" transform="translate(-125.536 -168.655)"/>
      <ellipse id="Ellipse_814" data-name="Ellipse 814" cx="1.223" cy="1.223" rx="1.223" ry="1.223" transform="translate(19.989 11.473)"/>
    </g>
  </g>
</svg>
