<svg id="cruise-on-sea" xmlns="http://www.w3.org/2000/svg" width="58.125" height="24.815" viewBox="0 0 58.125 24.815">
  <path id="Path_63" data-name="Path 63" d="M128.512,59.3a2.283,2.283,0,0,1,3.116,0,3.3,3.3,0,0,0,4.5,0,2.282,2.282,0,0,1,3.115,0,3.3,3.3,0,0,0,4.5,0,2.283,2.283,0,0,1,3.116,0,3.3,3.3,0,0,0,4.5,0,2.282,2.282,0,0,1,3.115,0,3.3,3.3,0,0,0,4.5,0,2.283,2.283,0,0,1,3.116,0,3.3,3.3,0,0,0,4.5,0,2.284,2.284,0,0,1,3.115,0,3.3,3.3,0,0,0,4.5,0,2.285,2.285,0,0,1,3.116,0,3.3,3.3,0,0,0,4.5,0,.506.506,0,0,0-.69-.74,2.284,2.284,0,0,1-3.115,0,3.246,3.246,0,0,0-.391-.31l3.818-4.372a.506.506,0,0,0-.381-.838h-4.178l-3.433-4.466a.5.5,0,0,0-.4-.2h-.287l-1.266-2.428a.507.507,0,0,0-.449-.272h-1.211l-1.266-2.429a.505.505,0,0,0-.449-.271H166.5l-1.267-2.429a.506.506,0,0,0-.448-.272H147.633a.506.506,0,0,0-.5.506v2.194H142.74v-7.1a.508.508,0,0,0-.506-.506h-6.259a.506.506,0,0,0-.505.506v7.1h-5.891a.507.507,0,0,0-.5.506v2.194h-.609a.5.5,0,0,0-.5.505v2.194h-.687a.5.5,0,0,0-.505.505V51.33h-.642a.506.506,0,0,0-.493.394l-.816,3.6a.512.512,0,0,0,.025.3l1.437,3.554a2.275,2.275,0,0,1-1.573-.617.506.506,0,1,0-.716.715l.025.023A3.3,3.3,0,0,0,128.512,59.3Zm13.216-22.919v1.321h-5.247V36.385Zm0,6.6-11.643,1.011H167.8l.878,1.689h-38.6Z" transform="translate(-123.842 -35.375)" fill="#c9141c"/>
  <path id="Path_56" data-name="Path 56" d="M139.438,53.386H136.5v1.043h1.9A1.043,1.043,0,0,0,139.438,53.386Z" transform="translate(-123.842 -35.375)" fill="#c9141c"/>
  <path id="Path_57" data-name="Path 57" d="M133.682,53.386h-2.941v1.043h1.9A1.044,1.044,0,0,0,133.682,53.386Z" transform="translate(-123.842 -35.375)" fill="#c9141c"/>
  <path id="Path_57-2" data-name="Path 57" d="M133.682,53.386h-2.941v1.043h1.9A1.044,1.044,0,0,0,133.682,53.386Z" transform="translate(-88.842 -39.375)" fill="#c9141c"/>
  <path id="Path_58" data-name="Path 58" d="M145.19,53.386h-2.941v1.043h1.9A1.043,1.043,0,0,0,145.19,53.386Z" transform="translate(-123.842 -35.375)" fill="#c9141c"/>
  <path id="Path_59" data-name="Path 59" d="M150.943,53.386H148v1.043h1.9A1.043,1.043,0,0,0,150.943,53.386Z" transform="translate(-123.842 -35.375)" fill="#c9141c"/>
  <path id="Path_60" data-name="Path 60" d="M156.7,53.386h-2.94v1.043h1.9A1.043,1.043,0,0,0,156.7,53.386Z" transform="translate(-123.842 -35.375)" fill="#c9141c"/>
  <path id="Path_61" data-name="Path 61" d="M162.451,53.386H159.51v1.043h1.9a1.043,1.043,0,0,0,1.044-1.043Z" transform="translate(-123.842 -35.375)" fill="#c9141c"/>
  <path id="Path_62" data-name="Path 62" d="M168.205,53.386h-2.94v1.043h1.9A1.043,1.043,0,0,0,168.205,53.386Z" transform="translate(-123.842 -35.375)" fill="#c9141c"/>
  <circle id="Ellipse_1" data-name="Ellipse 1" cx="0.695" cy="0.695" r="0.695" transform="translate(50.83 19.567)" fill="#c9141c"/>
</svg>
