<svg id="vincent-thomas-bridge" xmlns="http://www.w3.org/2000/svg" width="66.091" height="25.954" viewBox="0 0 66.091 25.954">
  <path id="Path_55" data-name="Path 55" d="M66.091,17.269V16.045a18.381,18.381,0,0,1-9.138-9.969L56.89,6.1V6.037H52.6V6.07l-.043-.017c-2.679,7.466-10.53,11.4-19.552,11.4S16.138,13.523,13.459,6.07l-.083.033V6.037H9.108v.17A18.452,18.452,0,0,1,0,16.049v1.22a20.408,20.408,0,0,0,2.2-1.243v5.767H.03v2.35H9.108v7.848h4.268V24.143H52.6v7.848H56.89V24.143h9.2V21.8H63.92V16.036A23.8,23.8,0,0,0,66.091,17.269ZM6.133,21.8H2.8V15.7a20.508,20.508,0,0,0,3.337-2.842Zm2.975,0H6.721V12.216A18.439,18.439,0,0,0,9.108,8.972Zm6.881,0H13.376V8.746a16.088,16.088,0,0,0,2.613,3.52Zm4.747,0H16.583V12.908A18.091,18.091,0,0,0,20.735,15.8Zm4.75,0H21.333V16.122a22.442,22.442,0,0,0,4.152,1.453Zm4.75,0H26.08V17.737a28.815,28.815,0,0,0,4.155.665Zm4.75,0H30.83V18.429c.721.057,1.439.11,2.177.11.668,0,1.323-.057,1.978-.09C34.985,18.449,34.985,21.8,34.985,21.8Zm4.747,0H35.577V18.412a28.883,28.883,0,0,0,4.155-.625Zm4.747,0H40.327V17.641a23.494,23.494,0,0,0,4.152-1.426Zm4.753,0H45.07V15.913a18.288,18.288,0,0,0,4.162-2.8Zm3.371,0H49.82v-9.31A15.977,15.977,0,0,0,52.6,8.809Zm6.794,0H56.89V8.749A18.305,18.305,0,0,0,59.4,12.226Zm3.942,0H59.988V12.864A20.861,20.861,0,0,0,63.339,15.7Z" transform="translate(0 -6.037)" fill="#c9141c"/>
</svg>
