<svg xmlns="http://www.w3.org/2000/svg" width="43.344" height="35.713" viewBox="0 0 43.344 35.713">
  <path id="Path_3639" data-name="Path 3639" d="M148.844,100.373H137.129v11.159h11.713a.574.574,0,1,1,0,1.122H137.123v0h-8.191s-11.715,0-11.715,11.716,11.715,11.715,11.715,11.715h11.716V124.927H128.934a.574.574,0,1,1,0-1.122h11.718v0h8.191s11.716,0,11.716-11.716S148.844,100.373,148.844,100.373Zm-2.56,5.968h-5.447V105.3h5.447Zm-14.792,23.777h5.447v1.043h-5.447Zm-9.937-3.7a6.79,6.79,0,0,1,0-4.089l1.022.311a5.62,5.62,0,0,0-.182.718,4.706,4.706,0,0,0,0,2.027,5.717,5.717,0,0,0,.188.72Zm6.474,4.74a6.761,6.761,0,0,1-4.684-1.882l.755-.755a5.7,5.7,0,0,0,2.912,1.483,4.96,4.96,0,0,0,1.017.111Zm0-12.507a5.709,5.709,0,0,0-3.938,1.568l-.745-.745a6.784,6.784,0,0,1,4.684-1.866Zm8.91,0h-5.447v-1.043h5.447Zm9.345.193h-5.447V117.8h5.447Zm3.463,0V117.8a5.71,5.71,0,0,0,3.939-1.568l.745.745A6.785,6.785,0,0,1,149.747,118.848Zm3.929-10.913a5.7,5.7,0,0,0-2.912-1.483,4.96,4.96,0,0,0-1.017-.111V105.3a6.761,6.761,0,0,1,4.684,1.882Zm2.549,6.191-1.022-.311a5.518,5.518,0,0,0,.182-.718,4.693,4.693,0,0,0,0-2.027,5.676,5.676,0,0,0-.188-.72l1.026-.313a6.79,6.79,0,0,1,0,4.089Z" transform="translate(-117.216 -100.373)" fill="#c9141c"/>
</svg>
